# xmcd
# 
# Track frame offsets:
#     150
#     8813
#     30575
#     53294
#     90312
#     109013
#     151647
#     164294
# 
# Disc length: 2361
# 
# Revision: 0
# Processed by: cddbd v1.5.2PL0 Copyright (c) Steve Scherf et al.
# Submitted via: fre:ac v1.0.17
# 
DISCID=43093708
DTITLE=Stevie Ray Vaughan - Couldn't Stand the Weather
DYEAR=1983
DGENRE=Blues
TTITLE0=Scuttle Buttin'
TTITLE1=Couldn't Stand the Weather
TTITLE2=Things (That) I Used to Do
TTITLE3=Voodoo Chile (Slight Return)
TTITLE4=Cold Shot
TTITLE5=Roughest Place in Town
TTITLE6=Honey Bee
TTITLE7=Stang's Swang
EXTD=
EXTT0=
EXTT1=
EXTT2=
EXTT3=
EXTT4=
EXTT5=
EXTT6=
EXTT7=
PLAYORDER=
